/vscmnt/brussel_pixiu_data/_data_brussel/112/vsc11236/PredSimResults/SUBJ11mtu3D/weighted-trackIG/worker_05.mot
version=1
nRows=4
nColumns=50
inDegrees=yes
endheader
                time	         pelvis_tilt	         pelvis_list	     pelvis_rotation	           pelvis_tx	           pelvis_ty	           pelvis_tz	       hip_flexion_r	     hip_adduction_r	      hip_rotation_r	        knee_angle_r	       ankle_angle_r	         mtp_angle_r	       hip_flexion_l	     hip_adduction_l	      hip_rotation_l	        knee_angle_l	       ankle_angle_l	         mtp_angle_l	    lumbar_extension	      lumbar_bending	     lumbar_rotation	 ercspn_r/activation	 intobl_r/activation	 extobl_r/activation	    abd_r/activation	    add_r/activation	hamstrings_r/activation	bifemsh_r/activation	glut_max_r/activation	iliopsoas_r/activation	rect_fem_r/activation	  vasti_r/activation	gastroc_r/activation	 soleus_r/activation	tib_ant_r/activation	 ercspn_l/activation	 intobl_l/activation	 extobl_l/activation	    abd_l/activation	    add_l/activation	hamstrings_l/activation	bifemsh_l/activation	glut_max_l/activation	iliopsoas_l/activation	rect_fem_l/activation	  vasti_l/activation	gastroc_l/activation	 soleus_l/activation	tib_ant_l/activation	
          1.44065851	         -5.88384087	         -5.05185558	          8.25543847	          1.39743875	          0.94295505	         -0.01806936	         30.37187713	          1.61100333	         -4.08982891	         -4.51690256	          5.27491497	          0.22916164	        -11.34489781	         -5.41510709	          5.03575543	         -7.23176429	         13.00590665	         25.66099631	         -3.60190160	          3.08586093	         -1.98585387	          0.07996927	          0.12228304	          0.02656853	          0.01240220	          0.12617360	          0.04563198	          0.16818780	          0.02868291	          0.08602388	          0.01354462	          0.01000462	          0.01014153	          0.01000141	          0.27692241	          0.04102098	          0.01000155	          0.01000398	          0.05510961	          0.02948415	          0.02527459	          0.12937746	          0.05594181	          0.45161146	          0.01001040	          0.01000321	          0.35752737	          0.26452013	          0.01000167	
          1.45506509	         -6.02407905	         -4.85772662	          8.27234058	          1.41486525	          0.94071877	         -0.01714142	         30.41926997	          1.61874093	         -4.06035071	         -6.11046735	          4.86712419	          0.18953604	        -11.62343589	         -5.28986369	          4.63262448	         -8.45347481	         12.60144287	         27.54637042	         -3.29255793	          3.33370919	         -2.16821372	          0.06449295	          0.12054546	          0.02142458	          0.01000653	          0.13902859	          0.05371212	          0.13563272	          0.06805176	          0.06936821	          0.01092407	          0.01000296	          0.01724854	          0.01241593	          0.30319792	          0.06375888	          0.01000218	          0.01000701	          0.04443973	          0.05970335	          0.02420881	          0.10432958	          0.04511098	          0.45359287	          0.01001523	          0.01000771	          0.32958685	          0.25231530	          0.01000075	
          1.46947168	         -6.14226684	         -4.65496460	          8.23716148	          1.43260140	          0.93889981	         -0.01611695	         30.25211682	          1.61836496	         -4.04677044	         -7.41027789	          4.31077073	          0.18002462	        -11.70713820	         -5.14070785	          4.20637568	        -10.08618259	         12.06119733	         29.54235433	         -2.97918567	          3.58569400	         -2.33102850	          0.07571283	          0.09720681	          0.01727661	          0.07303471	          0.15353323	          0.05683839	          0.10937999	          0.08208228	          0.05593737	          0.01000310	          0.01000090	          0.01390960	          0.01001236	          0.34412162	          0.08452090	          0.01000131	          0.01000427	          0.03583562	          0.05356778	          0.02515661	          0.08413128	          0.03637700	          0.44224179	          0.01001902	          0.01348388	          0.29827645	          0.23471321	          0.01000054	
          1.48387826	         -6.23760958	         -4.44412822	          8.15212689	          1.45038531	          0.93774327	         -0.01499584	         29.94383105	          1.62008977	         -4.07471914	         -8.49457888	          3.68751385	          0.14018202	        -11.51187376	         -4.96707285	          3.76383061	        -12.22842513	         11.31489682	         31.65774704	         -2.68496387	          3.84173478	         -2.46850361	          0.08104081	          0.07838633	          0.01393184	          0.11316300	          0.17414727	          0.05202462	          0.08820447	          0.10610822	          0.04510699	          0.01000666	          0.01001165	          0.01189770	          0.01016656	          0.37092900	          0.11098853	          0.01000133	          0.01000439	          0.02889734	          0.06273658	          0.02557037	          0.06784411	          0.02933393	          0.41678562	          0.01001812	          0.01239141	          0.24052735	          0.19279064	          0.01000051	
